<mxfile host="app.diagrams.net" modified="2020-11-30T14:34:42.039Z" agent="5.0 (Macintosh; Intel Mac OS X 11_0_0) AppleWebKit/537.36 (KHTML, like Gecko) Chrome/86.0.4240.198 Safari/537.36" etag="hNwbcP1uQOL0f3dXM1Xp" version="13.10.1" type="github">
  <diagram name="Page-1" id="dd472eb7-4b8b-5cd9-a60b-b15522922e76">
    <mxGraphModel dx="946" dy="561" grid="0" gridSize="10" guides="1" tooltips="1" connect="1" arrows="1" fold="1" page="1" pageScale="1" pageWidth="1100" pageHeight="850" background="#ffffff" math="0" shadow="0">
      <root>
        <mxCell id="0" />
        <mxCell id="1" parent="0" />
        <mxCell id="374e34682ed331ee-1" value="能力沉淀平台" style="ellipse;whiteSpace=wrap;html=1;rounded=0;shadow=1;comic=0;fontFamily=Verdana;fontSize=22;sketch=1;strokeWidth=1;editable=1;fixDash=0;snapToPoint=0;fillColor=#FFFFFF;" parent="1" vertex="1">
          <mxGeometry x="330" y="180" width="400" height="400" as="geometry" />
        </mxCell>
        <mxCell id="45236fa5f4b8e91a-2" value="业务能力" style="ellipse;whiteSpace=wrap;html=1;rounded=0;shadow=1;comic=0;fontFamily=Verdana;fontSize=22;sketch=1;strokeWidth=1;editable=1;fixDash=0;snapToPoint=0;fillColor=#FFFFFF;" parent="1" vertex="1">
          <mxGeometry x="410" y="520" width="160" height="160" as="geometry" />
        </mxCell>
        <mxCell id="45236fa5f4b8e91a-3" value="数据" style="ellipse;whiteSpace=wrap;html=1;rounded=0;shadow=1;comic=0;fontFamily=Verdana;fontSize=22;sketch=1;strokeWidth=1;editable=1;fixDash=0;snapToPoint=0;fillColor=#FFFFFF;" parent="1" vertex="1">
          <mxGeometry x="675" y="250" width="160" height="160" as="geometry" />
        </mxCell>
        <mxCell id="45236fa5f4b8e91a-4" value="基础能力" style="ellipse;whiteSpace=wrap;html=1;rounded=0;shadow=1;comic=0;fontFamily=Verdana;fontSize=22;sketch=1;strokeWidth=1;editable=1;fixDash=0;snapToPoint=0;fillColor=#FFFFFF;" parent="1" vertex="1">
          <mxGeometry x="300" y="120" width="160" height="160" as="geometry" />
        </mxCell>
        <mxCell id="45236fa5f4b8e91a-6" value="安全" style="ellipse;whiteSpace=wrap;html=1;rounded=0;shadow=1;comic=0;fontFamily=Verdana;fontSize=22;sketch=1;strokeWidth=1;editable=1;fixDash=0;snapToPoint=0;fillColor=#FFFFFF;" parent="1" vertex="1">
          <mxGeometry x="550" y="90" width="160" height="160" as="geometry" />
        </mxCell>
        <mxCell id="45236fa5f4b8e91a-7" value="算法" style="ellipse;whiteSpace=wrap;html=1;rounded=0;shadow=1;comic=0;fontFamily=Verdana;fontSize=22;sketch=1;strokeWidth=1;editable=1;fixDash=0;snapToPoint=0;fillColor=#FFFFFF;" parent="1" vertex="1">
          <mxGeometry x="620" y="450" width="160" height="160" as="geometry" />
        </mxCell>
        <mxCell id="45236fa5f4b8e91a-8" value="运维能力" style="ellipse;whiteSpace=wrap;html=1;rounded=0;shadow=1;comic=0;fontFamily=Verdana;fontSize=22;sketch=1;strokeWidth=1;editable=1;fixDash=0;snapToPoint=0;fillColor=#FFFFFF;" parent="1" vertex="1">
          <mxGeometry x="255" y="360" width="160" height="160" as="geometry" />
        </mxCell>
        <mxCell id="bn4RJ7tKio7X8lyJk39i-7" value="" style="edgeStyle=orthogonalEdgeStyle;rounded=0;orthogonalLoop=1;jettySize=auto;html=1;sketch=1;shadow=1;fillColor=#d5e8d4;strokeWidth=1;editable=1;fixDash=0;snapToPoint=0;" parent="1" source="bn4RJ7tKio7X8lyJk39i-4" target="bn4RJ7tKio7X8lyJk39i-6" edge="1">
          <mxGeometry relative="1" as="geometry" />
        </mxCell>
        <mxCell id="bn4RJ7tKio7X8lyJk39i-4" value="&lt;font style=&quot;font-size: 14px&quot;&gt;jenkin构建&lt;/font&gt;" style="ellipse;whiteSpace=wrap;html=1;rounded=0;shadow=1;comic=0;fontFamily=Verdana;fontSize=22;fillColor=#d5e8d4;sketch=1;strokeWidth=1;editable=1;fixDash=0;snapToPoint=0;" parent="1" vertex="1">
          <mxGeometry x="215" y="360" width="80" height="80" as="geometry" />
        </mxCell>
        <mxCell id="bn4RJ7tKio7X8lyJk39i-6" value="&lt;font style=&quot;font-size: 14px&quot;&gt;snoar扫描&lt;/font&gt;" style="ellipse;whiteSpace=wrap;html=1;rounded=0;shadow=1;comic=0;fontFamily=Verdana;fontSize=22;fillColor=#d5e8d4;sketch=1;strokeWidth=1;editable=1;fixDash=0;snapToPoint=0;" parent="1" vertex="1">
          <mxGeometry x="205" y="420" width="80" height="80" as="geometry" />
        </mxCell>
        <mxCell id="bn4RJ7tKio7X8lyJk39i-8" value="&lt;font style=&quot;font-size: 14px&quot;&gt;容器支持&lt;/font&gt;" style="ellipse;whiteSpace=wrap;html=1;rounded=0;shadow=1;comic=0;fontFamily=Verdana;fontSize=22;fillColor=#d5e8d4;sketch=1;strokeWidth=1;editable=1;fixDash=0;snapToPoint=0;" parent="1" vertex="1">
          <mxGeometry x="245" y="470" width="80" height="80" as="geometry" />
        </mxCell>
        <mxCell id="bn4RJ7tKio7X8lyJk39i-18" value="&lt;font style=&quot;font-size: 14px&quot;&gt;总量统计&lt;/font&gt;" style="ellipse;whiteSpace=wrap;html=1;rounded=0;shadow=1;comic=0;fontFamily=Verdana;fontSize=22;fillColor=#d5e8d4;sketch=1;strokeWidth=1;editable=1;fixDash=0;snapToPoint=0;" parent="1" vertex="1">
          <mxGeometry x="785" y="240" width="80" height="80" as="geometry" />
        </mxCell>
        <mxCell id="bn4RJ7tKio7X8lyJk39i-20" value="&lt;font style=&quot;font-size: 14px&quot;&gt;top统计&lt;/font&gt;" style="ellipse;whiteSpace=wrap;html=1;rounded=0;shadow=1;comic=0;fontFamily=Verdana;fontSize=22;fillColor=#d5e8d4;sketch=1;strokeWidth=1;editable=1;fixDash=0;snapToPoint=0;" parent="1" vertex="1">
          <mxGeometry x="805" y="295" width="80" height="80" as="geometry" />
        </mxCell>
        <mxCell id="bn4RJ7tKio7X8lyJk39i-27" value="&lt;font style=&quot;font-size: 14px&quot;&gt;任务调度&lt;/font&gt;" style="ellipse;whiteSpace=wrap;html=1;rounded=0;shadow=1;comic=0;fontFamily=Verdana;fontSize=22;fillColor=#d5e8d4;sketch=1;strokeWidth=1;editable=1;fixDash=0;snapToPoint=0;" parent="1" vertex="1">
          <mxGeometry x="420" y="110" width="80" height="80" as="geometry" />
        </mxCell>
        <mxCell id="bn4RJ7tKio7X8lyJk39i-1" value="&lt;font style=&quot;font-size: 14px&quot;&gt;邮件&lt;/font&gt;" style="ellipse;whiteSpace=wrap;html=1;rounded=0;shadow=1;comic=0;fontFamily=Verdana;fontSize=22;fillColor=#d5e8d4;sketch=1;strokeWidth=1;editable=1;fixDash=0;snapToPoint=0;" parent="1" vertex="1">
          <mxGeometry x="380" y="70" width="80" height="80" as="geometry" />
        </mxCell>
        <mxCell id="bn4RJ7tKio7X8lyJk39i-2" value="&lt;font style=&quot;font-size: 14px&quot;&gt;地址&lt;/font&gt;" style="ellipse;whiteSpace=wrap;html=1;rounded=0;shadow=1;comic=0;fontFamily=Verdana;fontSize=22;fillColor=#d5e8d4;sketch=1;strokeWidth=1;editable=1;fixDash=0;snapToPoint=0;" parent="1" vertex="1">
          <mxGeometry x="320" y="80" width="80" height="80" as="geometry" />
        </mxCell>
        <mxCell id="bn4RJ7tKio7X8lyJk39i-3" value="&lt;font style=&quot;font-size: 14px&quot;&gt;鉴黄&lt;/font&gt;" style="ellipse;whiteSpace=wrap;html=1;rounded=0;shadow=1;comic=0;fontFamily=Verdana;fontSize=22;fillColor=#d5e8d4;sketch=1;strokeWidth=1;editable=1;fixDash=0;snapToPoint=0;" parent="1" vertex="1">
          <mxGeometry x="270" y="110" width="80" height="80" as="geometry" />
        </mxCell>
        <mxCell id="bn4RJ7tKio7X8lyJk39i-10" value="&lt;font style=&quot;font-size: 14px&quot;&gt;短信&lt;/font&gt;" style="ellipse;whiteSpace=wrap;html=1;rounded=0;shadow=1;comic=0;fontFamily=Verdana;fontSize=22;fillColor=#d5e8d4;sketch=1;strokeWidth=1;editable=1;fixDash=0;snapToPoint=0;" parent="1" vertex="1">
          <mxGeometry x="250" y="160" width="80" height="80" as="geometry" />
        </mxCell>
        <mxCell id="bn4RJ7tKio7X8lyJk39i-24" value="&lt;font style=&quot;font-size: 14px&quot;&gt;消息队列&lt;/font&gt;" style="ellipse;whiteSpace=wrap;html=1;rounded=0;shadow=1;comic=0;fontFamily=Verdana;fontSize=22;fillColor=#d5e8d4;sketch=1;strokeWidth=1;editable=1;fixDash=0;snapToPoint=0;" parent="1" vertex="1">
          <mxGeometry x="260" y="220" width="80" height="80" as="geometry" />
        </mxCell>
        <mxCell id="bn4RJ7tKio7X8lyJk39i-29" value="&lt;font style=&quot;font-size: 14px&quot;&gt;个性推荐&lt;/font&gt;" style="ellipse;whiteSpace=wrap;html=1;rounded=0;shadow=1;comic=0;fontFamily=Verdana;fontSize=22;fillColor=#d5e8d4;sketch=1;strokeWidth=1;editable=1;fixDash=0;snapToPoint=0;" parent="1" vertex="1">
          <mxGeometry x="740" y="470" width="80" height="80" as="geometry" />
        </mxCell>
        <mxCell id="bn4RJ7tKio7X8lyJk39i-35" value="&lt;font style=&quot;font-size: 14px&quot;&gt;支付&lt;/font&gt;" style="ellipse;whiteSpace=wrap;html=1;rounded=0;shadow=1;comic=0;fontFamily=Verdana;fontSize=22;fillColor=#d5e8d4;sketch=1;strokeWidth=1;editable=1;fixDash=0;snapToPoint=0;" parent="1" vertex="1">
          <mxGeometry x="345" y="550" width="80" height="80" as="geometry" />
        </mxCell>
        <mxCell id="bn4RJ7tKio7X8lyJk39i-12" value="&lt;font style=&quot;font-size: 14px&quot;&gt;订单&lt;/font&gt;" style="ellipse;whiteSpace=wrap;html=1;rounded=0;shadow=1;comic=0;fontFamily=Verdana;fontSize=22;fillColor=#d5e8d4;sketch=1;strokeWidth=1;editable=1;fixDash=0;snapToPoint=0;" parent="1" vertex="1">
          <mxGeometry x="360" y="600" width="80" height="80" as="geometry" />
        </mxCell>
        <mxCell id="bn4RJ7tKio7X8lyJk39i-14" value="&lt;font style=&quot;font-size: 14px&quot;&gt;营销&lt;/font&gt;" style="ellipse;whiteSpace=wrap;html=1;rounded=0;shadow=1;comic=0;fontFamily=Verdana;fontSize=22;fillColor=#d5e8d4;sketch=1;strokeWidth=1;editable=1;fixDash=0;snapToPoint=0;" parent="1" vertex="1">
          <mxGeometry x="410" y="640" width="80" height="80" as="geometry" />
        </mxCell>
        <mxCell id="bn4RJ7tKio7X8lyJk39i-16" value="&lt;font style=&quot;font-size: 14px&quot;&gt;商品&lt;/font&gt;" style="ellipse;whiteSpace=wrap;html=1;rounded=0;shadow=1;comic=0;fontFamily=Verdana;fontSize=22;fillColor=#d5e8d4;sketch=1;strokeWidth=1;editable=1;fixDash=0;snapToPoint=0;" parent="1" vertex="1">
          <mxGeometry x="470" y="650" width="80" height="80" as="geometry" />
        </mxCell>
        <mxCell id="bn4RJ7tKio7X8lyJk39i-31" value="&lt;font style=&quot;font-size: 14px&quot;&gt;转发&lt;/font&gt;" style="ellipse;whiteSpace=wrap;html=1;rounded=0;shadow=1;comic=0;fontFamily=Verdana;fontSize=22;fillColor=#d5e8d4;sketch=1;strokeWidth=1;editable=1;fixDash=0;snapToPoint=0;" parent="1" vertex="1">
          <mxGeometry x="521" y="630" width="80" height="80" as="geometry" />
        </mxCell>
        <mxCell id="bn4RJ7tKio7X8lyJk39i-33" value="&lt;font style=&quot;font-size: 14px&quot;&gt;售后&lt;/font&gt;" style="ellipse;whiteSpace=wrap;html=1;rounded=0;shadow=1;comic=0;fontFamily=Verdana;fontSize=22;fillColor=#d5e8d4;sketch=1;strokeWidth=1;editable=1;fixDash=0;snapToPoint=0;" parent="1" vertex="1">
          <mxGeometry x="543" y="576" width="80" height="80" as="geometry" />
        </mxCell>
        <mxCell id="bn4RJ7tKio7X8lyJk39i-37" value="&lt;font style=&quot;font-size: 14px&quot;&gt;风控&lt;/font&gt;" style="ellipse;whiteSpace=wrap;html=1;rounded=0;shadow=1;comic=0;fontFamily=Verdana;fontSize=22;fillColor=#d5e8d4;sketch=1;strokeWidth=1;editable=1;fixDash=0;snapToPoint=0;" parent="1" vertex="1">
          <mxGeometry x="657" y="80" width="80" height="80" as="geometry" />
        </mxCell>
      </root>
    </mxGraphModel>
  </diagram>
</mxfile>
